Coordinates
version=1
nRows=10
nColumns=63
inDegrees=yes

Units are S.I. units (second, meters, Newtons, ...)
If the header above contains a line with 'inDegrees', this indicates whether rotational values are in degrees (yes) or radians (no).

endheader
time	pelvis_tilt	pelvis_list	pelvis_rotation	pelvis_tx	pelvis_ty	pelvis_tz	hip_flexion_r	hip_adduction_r	hip_rotation_r	knee_angle_r	knee_angle_r_beta	ankle_angle_r	subtalar_angle_r	mtp_angle_r	hip_flexion_l	hip_adduction_l	hip_rotation_l	knee_angle_l	knee_angle_l_beta	ankle_angle_l	subtalar_angle_l	mtp_angle_l	L5_S1_Flex_Ext	L5_S1_Lat_Bending	L5_S1_axial_rotation	L4_L5_Flex_Ext	L4_L5_Lat_Bending	L4_L5_axial_rotation	L3_L4_Flex_Ext	L3_L4_Lat_Bending	L3_L4_axial_rotation	L2_L3_Flex_Ext	L2_L3_Lat_Bending	L2_L3_axial_rotation	L1_L2_Flex_Ext	L1_L2_Lat_Bending	L1_L2_axial_rotation	L1_T12_Flex_Ext	L1_T12_Lat_Bending	L1_T12_axial_rotation	Abs_r3	Abs_r2	Abs_r1	Abs_t1	Abs_t2	neck_flexion	neck_bending	neck_rotation	arm_flex_r	arm_add_r	arm_rot_r	elbow_flex_r	pro_sup_r	wrist_flex_r	wrist_dev_r	arm_flex_l	arm_add_l	arm_rot_l	elbow_flex_l	pro_sup_l	wrist_flex_l	wrist_dev_l
      0.00800000	    -51.85456393	     -5.44626150	      1.32773160	     -0.37369136	      1.11971694	      0.04412786	    106.54489011	     -7.37263556	     -6.71442496	     76.98711620	      1.34367866	     24.23069564	      4.22452873	      0.00000000	     95.20721954	     -9.26499771	      0.96526089	     89.54848534	      1.56291591	     15.19086708	      9.51263034	      0.00000000	     -0.07576229	      0.58018982	      0.04904394	     -0.14069815	      0.77165245	      0.05210919	     -0.12446986	      1.41067352	      0.05210919	     -0.08658872	      1.41067352	      0.04291345	     -0.07035286	      1.18312307	      0.03984820	     -0.04329057	      0.89871402	      0.03678296	     -0.54116245	      6.56322323	      0.27276769	      0.00000000	      0.00000000	     -0.00000000	      0.00000000	      0.00000000	     77.88692018	    -11.64056505	     21.45617875	     27.82950611	     33.21345807	      0.00000000	      5.90184626	     78.51929137	     -6.55717503	     18.48538459	     23.76500657	     52.60763656	      0.00000000	      5.90184626
      0.01700000	    -51.85304327	     -5.32736473	      1.18502625	     -0.37421451	      1.11958245	      0.04473736	    104.80747265	     -6.93857001	     -6.48676650	     73.51426335	      1.28306594	     22.13698267	      4.56593891	      0.00000000	     96.58392524	     -9.35373747	      1.47072514	     92.97185928	      1.62266506	     16.33849510	      9.75887644	      0.00000000	     -0.07787999	      0.55146954	      0.09585470	     -0.14463093	      0.73345449	      0.10184562	     -0.12794904	      1.34084305	      0.10184562	     -0.08900904	      1.34084305	      0.08387286	     -0.07231936	      1.12455669	      0.07788194	     -0.04450063	      0.85422632	      0.07189103	     -0.55628898	      6.23833378	      0.53311509	      0.00000000	      0.00000000	     -0.00000000	      0.00000000	      0.00000000	     78.20608384	    -11.52983535	     21.60098471	     26.94026537	     33.21683317	      0.00000000	      5.88587041	     79.03482192	     -6.29419030	     18.69699596	     22.70998199	     52.73004362	      0.00000000	      5.88587041
      0.02500000	    -51.85491418	     -5.53484679	      1.07414377	     -0.37418723	      1.11968819	      0.04456820	    104.09197475	     -6.84451107	     -6.86006393	     72.28206446	      1.26156001	     21.44335139	      4.46124016	      0.00000000	     97.22700970	     -9.36682168	      2.05989396	     94.08883007	      1.64215987	     16.64090705	     10.55496059	      0.00000000	     -0.07884981	      0.58113092	      0.11374494	     -0.14643199	      0.77290413	      0.12085400	     -0.12954236	      1.41296173	      0.12085400	     -0.09011745	      1.41296173	      0.09952682	     -0.07321994	      1.18504218	      0.09241777	     -0.04505478	      0.90017180	      0.08530871	     -0.56321632	      6.57386925	      0.63261525	      0.00000000	      0.00000000	     -0.00000000	      0.00000000	      0.00000000	     78.27747888	    -11.59371088	     21.86001006	     26.92838881	     33.21532229	      0.00000000	      5.87742016	     79.00375191	     -6.35001503	     19.00348549	     22.67813537	     52.87516970	      0.00000000	      5.87742016
      0.03300000	    -51.86399408	     -5.73773442	      1.00127350	     -0.37417494	      1.11976814	      0.04433719	    103.29387606	     -6.76995910	     -7.23709111	     70.89164057	      1.23729254	     20.55908801	      4.36512240	      0.00000000	     97.98524357	     -9.31855986	      2.63665547	     95.33990908	      1.66399532	     16.90351742	     11.03001192	      0.00000000	     -0.07872587	      0.60959935	      0.11725820	     -0.14620182	      0.81076713	      0.12458684	     -0.12933874	      1.48217985	      0.12458684	     -0.08997580	      1.48217985	      0.10260093	     -0.07310485	      1.24309499	      0.09527229	     -0.04498396	      0.94426939	      0.08794365	     -0.56233105	      6.89590971	      0.65215496	      0.00000000	      0.00000000	     -0.00000000	      0.00000000	      0.00000000	     78.37375555	    -11.60127093	     22.07472095	     26.82553614	     33.22925892	      0.00000000	      5.85659823	     78.94989373	     -6.45531376	     19.26393228	     22.71462764	     53.00111631	      0.00000000	      5.85659823
      0.04200000	    -51.85450054	     -5.87395647	      0.96761515	     -0.37403776	      1.11984656	      0.04397476	    102.39122288	     -6.71296041	     -7.53502933	     69.36902499	      1.21071788	     19.56814848	      4.42494669	      0.00000000	     98.80373193	     -9.20599065	      3.15287368	     96.72342134	      1.68814217	     17.11426461	     11.33690476	      0.00000000	     -0.07970355	      0.63068312	      0.11370189	     -0.14801747	      0.83880854	      0.12080826	     -0.13094497	      1.53344293	      0.12080826	     -0.09109319	      1.53344293	      0.09948916	     -0.07401272	      1.28608901	      0.09238279	     -0.04554261	      0.97692815	      0.08527642	     -0.56931452	      7.13441354	      0.63237582	      0.00000000	      0.00000000	     -0.00000000	      0.00000000	      0.00000000	     78.43926647	    -11.58008707	     22.16657760	     26.73423325	     33.22107851	      0.00000000	      5.83751301	     78.84977473	     -6.53127551	     19.40241941	     22.73443248	     53.08467063	      0.00000000	      5.83751301
      0.05000000	    -51.84271477	     -5.77731233	      1.16828574	     -0.37384964	      1.11996983	      0.04345630	    101.46335547	     -6.81015265	     -7.50457218	     67.76673737	      1.18275269	     18.64650387	      4.60705149	      0.00000000	     99.57343438	     -8.86272141	      3.38324283	     98.06610315	      1.71157638	     17.43489376	     11.43984386	      0.00000000	     -0.08036145	      0.61892938	      0.05925094	     -0.14923925	      0.82317608	      0.06295412	     -0.13202582	      1.50486490	      0.06295412	     -0.09184510	      1.50486490	      0.05184457	     -0.07462364	      1.26212079	      0.04814139	     -0.04591853	      0.95872161	      0.04443820	     -0.57401379	      7.00145294	      0.32953595	      0.00000000	      0.00000000	     -0.00000000	      0.00000000	      0.00000000	     78.38710845	    -11.51872220	     22.18777909	     26.73266421	     33.21652630	      0.00000000	      5.83181672	     78.79380546	     -6.66139947	     19.42612760	     22.73459783	     53.10597929	      0.00000000	      5.83181672
      0.05800000	    -51.82851652	     -6.15302968	      0.92375366	     -0.37354113	      1.11995297	      0.04311696	    100.35850007	     -6.57298021	     -8.16648148	     66.02613619	      1.15237347	     17.32355641	      4.79577049	      0.00000000	    100.61943935	     -8.91381915	      4.21377251	     99.69961134	      1.74008648	     17.88108847	     11.75426602	      0.00000000	     -0.07996854	      0.67356336	      0.09772813	     -0.14850957	      0.89583927	      0.10383614	     -0.13138031	      1.63770195	      0.10383614	     -0.09139604	      1.63770195	      0.08551212	     -0.07425878	      1.37353040	      0.07940411	     -0.04569402	      1.04334964	      0.07329610	     -0.57120725	      7.61948343	      0.54353457	      0.00000000	      0.00000000	     -0.00000000	      0.00000000	      0.00000000	     78.49855635	    -11.53521420	     22.19964645	     26.59406459	     33.19457461	      0.00000000	      5.81472330	     78.59878118	     -6.70391924	     19.51783191	     22.87959279	     53.16534894	      0.00000000	      5.81472330
      0.06700000	    -51.79890343	     -6.00389631	      1.24976114	     -0.37322734	      1.11998368	      0.04254169	     99.34181420	     -6.74318097	     -8.06981029	     64.38588051	      1.12374561	     16.39358584	      4.99761768	      0.00000000	    101.44988314	     -8.47980314	      4.33069571	    101.08740013	      1.76430796	     18.33621982	     11.78522470	      0.00000000	     -0.08081684	      0.65112288	      0.02106609	     -0.15008495	      0.86599343	      0.02238272	     -0.13277399	      1.58314017	      0.02238272	     -0.09236557	      1.58314017	      0.01843283	     -0.07504652	      1.32776978	      0.01711620	     -0.04617874	      1.00858934	      0.01579957	     -0.57726660	      7.36563226	      0.11716328	      0.00000000	      0.00000000	     -0.00000000	      0.00000000	      0.00000000	     78.41844192	    -11.47091423	     22.25058756	     26.59804742	     33.19697923	      0.00000000	      5.80974782	     78.56831913	     -6.80218946	     19.51478969	     22.88126636	     53.17633266	      0.00000000	      5.80974782
      0.07500000	    -51.77542046	     -6.22739063	      1.17332552	     -0.37283041	      1.11990932	      0.04209301	     98.23537904	     -6.59317945	     -8.47714556	     62.71394920	      1.09456490	     15.06107641	      5.36867114	      0.00000000	    102.46299327	     -8.38059831	      4.90447361	    102.63320598	      1.79128737	     19.03800837	     11.80661409	      0.00000000	     -0.08044384	      0.68348045	      0.03074089	     -0.14939226	      0.90902900	      0.03266219	     -0.13216119	      1.66181437	      0.03266219	     -0.09193927	      1.66181437	      0.02689827	     -0.07470015	      1.39375334	      0.02497697	     -0.04596561	      1.05871122	      0.02305566	     -0.57460234	      7.73166758	      0.17097158	      0.00000000	      0.00000000	     -0.00000000	      0.00000000	      0.00000000	     78.47450975	    -11.49740920	     22.37480482	     26.49661908	     33.20046258	      0.00000000	      5.79412605	     78.42498426	     -6.80247439	     19.54663930	     22.98687099	     53.21460382	      0.00000000	      5.79412605
      0.08300000	    -51.74235499	     -6.04125872	      1.55571954	     -0.37247668	      1.11984406	      0.04144689	     97.21473579	     -6.80085171	     -8.32169077	     61.17500815	      1.06770531	     14.19853077	      5.61535470	      0.00000000	    103.32862395	     -7.93024785	      4.88688866	    103.95561682	      1.81436779	     19.52697334	     11.75477993	      0.00000000	     -0.08084531	      0.65630950	     -0.04979865	     -0.15013782	      0.87289164	     -0.05291106	     -0.13282075	      1.59575092	     -0.05291106	     -0.09239810	      1.59575092	     -0.04357382	     -0.07507295	      1.33834633	     -0.04046140	     -0.04619501	      1.01662342	     -0.03734899	     -0.57746994	      7.42430434	     -0.27696514	      0.00000000	      0.00000000	     -0.00000000	      0.00000000	      0.00000000	     78.38695408	    -11.45456224	     22.46606509	     26.50363441	     33.21110771	      0.00000000	      5.78902933	     78.42575540	     -6.84792002	     19.53905531	     22.96769480	     53.22417748	      0.00000000	      5.78902933
